<svg xmlns="http://www.w3.org/2000/svg" xmlns:xlink="http://www.w3.org/1999/xlink" width="500" zoomAndPan="magnify" viewBox="0 0 375 374.999991" height="500" preserveAspectRatio="xMidYMid meet" version="1.0"><defs><g/><clipPath id="id1"><path d="M 177.75 290.800781 L 197.25 290.800781 L 197.25 309.550781 L 177.75 309.550781 Z M 177.75 290.800781 " clip-rule="nonzero"/></clipPath><clipPath id="id2"><path d="M 217.507812 281.507812 L 237.007812 281.507812 L 237.007812 300.257812 L 217.507812 300.257812 Z M 217.507812 281.507812 " clip-rule="nonzero"/></clipPath><clipPath id="id3"><path d="M 143.742188 281.507812 L 163.242188 281.507812 L 163.242188 300.257812 L 143.742188 300.257812 Z M 143.742188 281.507812 " clip-rule="nonzero"/></clipPath><clipPath id="id4"><path d="M 249.925781 266.261719 L 269.425781 266.261719 L 269.425781 285 L 249.925781 285 Z M 249.925781 266.261719 " clip-rule="nonzero"/></clipPath><clipPath id="id5"><path d="M 116.375 266.261719 L 135.875 266.261719 L 135.875 285 L 116.375 285 Z M 116.375 266.261719 " clip-rule="nonzero"/></clipPath><clipPath id="id6"><path d="M 155 188 L 220 188 L 220 221.789062 L 155 221.789062 Z M 155 188 " clip-rule="nonzero"/></clipPath><clipPath id="id7"><path d="M 149.433594 154 L 227.433594 154 L 227.433594 201 L 149.433594 201 Z M 149.433594 154 " clip-rule="nonzero"/></clipPath><clipPath id="id8"><path d="M 101.09375 113 L 135 113 L 135 147.601562 L 101.09375 147.601562 Z M 101.09375 113 " clip-rule="nonzero"/></clipPath><clipPath id="id9"><path d="M 238 113 L 273.59375 113 L 273.59375 147.601562 L 238 147.601562 Z M 238 113 " clip-rule="nonzero"/></clipPath></defs><path fill="#f8b858" d="M 307.777344 162.839844 C 284.222656 100.019531 310.140625 72.777344 310.140625 72.777344 C 310.140625 72.773438 286.3125 76.226562 244.851562 64.382812 C 203.390625 52.535156 188.34375 31.988281 188.34375 31.988281 C 188.34375 31.988281 173.300781 52.535156 131.839844 64.382812 C 90.378906 76.226562 66.542969 72.773438 66.542969 72.773438 C 66.542969 72.773438 92.46875 100.019531 68.917969 162.835938 C 53.121094 204.96875 53.753906 244.8125 66.542969 270.671875 C 87.195312 312.441406 165.433594 336.703125 188.347656 343.007812 C 211.261719 336.703125 289.496094 312.441406 310.144531 270.671875 C 322.929688 244.8125 323.574219 204.96875 307.777344 162.835938 " fill-opacity="1" fill-rule="nonzero"/><path fill="#10375b" d="M 296.488281 164.480469 C 275.15625 105.839844 298.632812 80.410156 298.632812 80.410156 C 298.632812 80.410156 277.050781 83.632812 239.507812 72.578125 C 201.972656 61.523438 188.34375 42.339844 188.34375 42.339844 C 188.34375 42.339844 174.71875 61.523438 137.183594 72.578125 C 99.640625 83.632812 78.054688 80.410156 78.054688 80.410156 C 78.054688 80.410156 101.527344 105.839844 80.207031 164.480469 C 65.902344 203.808594 66.476562 241 78.054688 265.136719 C 96.757812 304.128906 167.589844 326.777344 188.34375 332.65625 C 209.085938 326.777344 279.933594 304.128906 298.628906 265.136719 C 310.210938 241 310.792969 203.808594 296.484375 164.480469 " fill-opacity="1" fill-rule="nonzero"/><g clip-path="url(#id1)"><path fill="#f8b858" d="M 187.5 290.828125 L 190.515625 296.980469 L 197.25 297.96875 L 192.375 302.761719 L 193.527344 309.523438 L 187.5 306.332031 L 181.476562 309.523438 L 182.625 302.761719 L 177.75 297.96875 L 184.488281 296.980469 Z M 187.5 290.828125 " fill-opacity="1" fill-rule="nonzero"/></g><g clip-path="url(#id2)"><path fill="#f8b858" d="M 227.257812 281.535156 L 230.273438 287.6875 L 237.007812 288.675781 L 232.132812 293.464844 L 233.285156 300.230469 L 227.257812 297.039062 L 221.234375 300.230469 L 222.382812 293.464844 L 217.507812 288.675781 L 224.246094 287.6875 Z M 227.257812 281.535156 " fill-opacity="1" fill-rule="nonzero"/></g><g clip-path="url(#id3)"><path fill="#f8b858" d="M 153.492188 281.535156 L 156.503906 287.6875 L 163.242188 288.675781 L 158.367188 293.464844 L 159.515625 300.230469 L 153.492188 297.039062 L 147.464844 300.230469 L 148.617188 293.464844 L 143.742188 288.675781 L 150.476562 287.6875 Z M 153.492188 281.535156 " fill-opacity="1" fill-rule="nonzero"/></g><g clip-path="url(#id4)"><path fill="#f8b858" d="M 259.675781 266.285156 L 262.6875 272.441406 L 269.425781 273.429688 L 264.550781 278.21875 L 265.699219 284.984375 L 259.675781 281.789062 L 253.648438 284.984375 L 254.800781 278.21875 L 249.925781 273.429688 L 256.660156 272.441406 Z M 259.675781 266.285156 " fill-opacity="1" fill-rule="nonzero"/></g><g clip-path="url(#id5)"><path fill="#f8b858" d="M 126.125 266.285156 L 129.136719 272.441406 L 135.875 273.429688 L 131 278.21875 L 132.148438 284.984375 L 126.125 281.789062 L 120.097656 284.984375 L 121.25 278.21875 L 116.375 273.429688 L 123.113281 272.441406 Z M 126.125 266.285156 " fill-opacity="1" fill-rule="nonzero"/></g><g clip-path="url(#id6)"><path fill="#f8b858" d="M 219.488281 205.289062 C 219.488281 205.828125 219.4375 206.367188 219.335938 206.90625 C 219.234375 207.445312 219.082031 207.976562 218.878906 208.507812 C 218.675781 209.039062 218.421875 209.5625 218.121094 210.078125 C 217.820312 210.597656 217.46875 211.105469 217.070312 211.605469 C 216.671875 212.101562 216.230469 212.589844 215.738281 213.066406 C 215.246094 213.542969 214.714844 214.007812 214.136719 214.457031 C 213.558594 214.90625 212.9375 215.339844 212.277344 215.757812 C 211.617188 216.175781 210.921875 216.574219 210.183594 216.957031 C 209.449219 217.339844 208.679688 217.703125 207.875 218.046875 C 207.070312 218.386719 206.238281 218.710938 205.371094 219.011719 C 204.507812 219.308594 203.617188 219.585938 202.699219 219.84375 C 201.78125 220.097656 200.839844 220.328125 199.878906 220.535156 C 198.917969 220.742188 197.941406 220.921875 196.945312 221.082031 C 195.949219 221.238281 194.941406 221.367188 193.921875 221.472656 C 192.902344 221.578125 191.875 221.660156 190.839844 221.710938 C 189.804688 221.765625 188.765625 221.792969 187.726562 221.792969 C 186.683594 221.792969 185.648438 221.765625 184.613281 221.710938 C 183.578125 221.660156 182.546875 221.578125 181.527344 221.472656 C 180.507812 221.367188 179.5 221.238281 178.503906 221.082031 C 177.507812 220.921875 176.53125 220.742188 175.570312 220.535156 C 174.609375 220.328125 173.667969 220.097656 172.75 219.84375 C 171.835938 219.585938 170.941406 219.308594 170.078125 219.011719 C 169.214844 218.710938 168.378906 218.386719 167.574219 218.046875 C 166.769531 217.703125 166 217.339844 165.265625 216.957031 C 164.527344 216.574219 163.832031 216.175781 163.171875 215.757812 C 162.511719 215.339844 161.890625 214.90625 161.316406 214.457031 C 160.738281 214.007812 160.203125 213.542969 159.710938 213.066406 C 159.222656 212.589844 158.777344 212.101562 158.378906 211.605469 C 157.980469 211.105469 157.632812 210.597656 157.328125 210.078125 C 157.027344 209.5625 156.773438 209.039062 156.570312 208.507812 C 156.367188 207.976562 156.214844 207.445312 156.113281 206.90625 C 156.011719 206.367188 155.960938 205.828125 155.960938 205.289062 C 155.960938 204.746094 156.011719 204.207031 156.113281 203.671875 C 156.214844 203.132812 156.367188 202.597656 156.570312 202.070312 C 156.773438 201.539062 157.027344 201.015625 157.328125 200.496094 C 157.632812 199.980469 157.980469 199.472656 158.378906 198.972656 C 158.777344 198.472656 159.222656 197.984375 159.710938 197.507812 C 160.203125 197.03125 160.738281 196.570312 161.316406 196.121094 C 161.890625 195.671875 162.511719 195.238281 163.171875 194.820312 C 163.832031 194.402344 164.527344 194 165.265625 193.617188 C 166 193.238281 166.769531 192.875 167.574219 192.53125 C 168.378906 192.1875 169.214844 191.867188 170.078125 191.566406 C 170.941406 191.265625 171.835938 190.988281 172.75 190.734375 C 173.667969 190.480469 174.609375 190.25 175.570312 190.042969 C 176.53125 189.835938 177.507812 189.652344 178.503906 189.496094 C 179.5 189.339844 180.507812 189.207031 181.527344 189.101562 C 182.546875 188.996094 183.578125 188.917969 184.613281 188.863281 C 185.648438 188.8125 186.683594 188.785156 187.726562 188.785156 C 188.765625 188.785156 189.804688 188.8125 190.839844 188.863281 C 191.875 188.917969 192.902344 188.996094 193.921875 189.101562 C 194.941406 189.207031 195.949219 189.339844 196.945312 189.496094 C 197.941406 189.652344 198.917969 189.835938 199.878906 190.042969 C 200.839844 190.25 201.78125 190.480469 202.699219 190.734375 C 203.617188 190.988281 204.507812 191.265625 205.371094 191.566406 C 206.238281 191.867188 207.070312 192.1875 207.875 192.53125 C 208.679688 192.875 209.449219 193.238281 210.183594 193.617188 C 210.921875 194 211.617188 194.402344 212.277344 194.820312 C 212.9375 195.238281 213.558594 195.671875 214.136719 196.121094 C 214.714844 196.570312 215.246094 197.03125 215.738281 197.507812 C 216.230469 197.984375 216.671875 198.472656 217.070312 198.972656 C 217.46875 199.472656 217.820312 199.980469 218.121094 200.496094 C 218.421875 201.015625 218.675781 201.539062 218.878906 202.070312 C 219.082031 202.597656 219.234375 203.132812 219.335938 203.671875 C 219.4375 204.207031 219.488281 204.746094 219.488281 205.289062 Z M 219.488281 205.289062 " fill-opacity="1" fill-rule="nonzero"/></g><path fill="#00262b" d="M 219.488281 202.046875 C 219.488281 202.609375 219.4375 203.167969 219.335938 203.730469 C 219.234375 204.289062 219.082031 204.84375 218.878906 205.398438 C 218.675781 205.949219 218.421875 206.496094 218.121094 207.035156 C 217.820312 207.570312 217.46875 208.101562 217.070312 208.621094 C 216.671875 209.140625 216.230469 209.648438 215.738281 210.144531 C 215.246094 210.640625 214.714844 211.125 214.136719 211.589844 C 213.558594 212.058594 212.9375 212.511719 212.277344 212.945312 C 211.617188 213.382812 210.921875 213.796875 210.183594 214.195312 C 209.449219 214.59375 208.679688 214.972656 207.875 215.328125 C 207.070312 215.683594 206.238281 216.019531 205.371094 216.332031 C 204.507812 216.644531 203.617188 216.933594 202.699219 217.199219 C 201.78125 217.464844 200.839844 217.707031 199.878906 217.921875 C 198.917969 218.136719 197.941406 218.324219 196.945312 218.488281 C 195.949219 218.652344 194.941406 218.789062 193.921875 218.898438 C 192.902344 219.007812 191.875 219.089844 190.839844 219.144531 C 189.804688 219.199219 188.765625 219.230469 187.726562 219.230469 C 186.683594 219.230469 185.648438 219.199219 184.613281 219.144531 C 183.578125 219.089844 182.546875 219.007812 181.527344 218.898438 C 180.507812 218.789062 179.5 218.652344 178.503906 218.488281 C 177.507812 218.324219 176.53125 218.136719 175.570312 217.921875 C 174.609375 217.707031 173.667969 217.464844 172.75 217.199219 C 171.835938 216.933594 170.941406 216.644531 170.078125 216.332031 C 169.214844 216.019531 168.378906 215.683594 167.574219 215.328125 C 166.769531 214.972656 166 214.59375 165.265625 214.195312 C 164.527344 213.796875 163.832031 213.382812 163.171875 212.945312 C 162.511719 212.511719 161.890625 212.058594 161.316406 211.589844 C 160.738281 211.125 160.203125 210.640625 159.710938 210.144531 C 159.222656 209.648438 158.777344 209.140625 158.378906 208.621094 C 157.980469 208.101562 157.632812 207.570312 157.328125 207.035156 C 157.027344 206.496094 156.773438 205.949219 156.570312 205.398438 C 156.367188 204.84375 156.214844 204.289062 156.113281 203.730469 C 156.011719 203.167969 155.960938 202.609375 155.960938 202.046875 C 155.960938 201.480469 156.011719 200.921875 156.113281 200.359375 C 156.214844 199.800781 156.367188 199.246094 156.570312 198.691406 C 156.773438 198.140625 157.027344 197.59375 157.328125 197.058594 C 157.632812 196.519531 157.980469 195.988281 158.378906 195.46875 C 158.777344 194.949219 159.222656 194.441406 159.710938 193.945312 C 160.203125 193.449219 160.738281 192.964844 161.316406 192.5 C 161.890625 192.03125 162.511719 191.578125 163.171875 191.144531 C 163.832031 190.707031 164.527344 190.292969 165.265625 189.894531 C 166 189.496094 166.769531 189.117188 167.574219 188.761719 C 168.378906 188.40625 169.214844 188.070312 170.078125 187.757812 C 170.941406 187.445312 171.835938 187.15625 172.75 186.890625 C 173.667969 186.625 174.609375 186.382812 175.570312 186.167969 C 176.53125 185.953125 177.507812 185.765625 178.503906 185.601562 C 179.5 185.4375 180.507812 185.300781 181.527344 185.191406 C 182.546875 185.082031 183.578125 185 184.613281 184.945312 C 185.648438 184.890625 186.683594 184.863281 187.726562 184.863281 C 188.765625 184.863281 189.804688 184.890625 190.839844 184.945312 C 191.875 185 192.902344 185.082031 193.921875 185.191406 C 194.941406 185.300781 195.949219 185.4375 196.945312 185.601562 C 197.941406 185.765625 198.917969 185.953125 199.878906 186.167969 C 200.839844 186.382812 201.78125 186.625 202.699219 186.890625 C 203.617188 187.15625 204.507812 187.445312 205.371094 187.757812 C 206.238281 188.070312 207.070312 188.40625 207.875 188.761719 C 208.679688 189.117188 209.449219 189.496094 210.183594 189.894531 C 210.921875 190.292969 211.617188 190.707031 212.277344 191.144531 C 212.9375 191.578125 213.558594 192.03125 214.136719 192.5 C 214.714844 192.964844 215.246094 193.449219 215.738281 193.945312 C 216.230469 194.441406 216.671875 194.949219 217.070312 195.46875 C 217.46875 195.988281 217.820312 196.519531 218.121094 197.058594 C 218.421875 197.59375 218.675781 198.140625 218.878906 198.691406 C 219.082031 199.246094 219.234375 199.800781 219.335938 200.359375 C 219.4375 200.921875 219.488281 201.480469 219.488281 202.046875 Z M 219.488281 202.046875 " fill-opacity="1" fill-rule="nonzero"/><g clip-path="url(#id7)"><path fill="#002e35" d="M 222.644531 185.714844 L 222.628906 185.730469 C 222.96875 187.511719 223.171875 189.34375 223.191406 191.214844 C 223.195312 191.359375 223.195312 191.5 223.195312 191.644531 C 223.195312 192.25 223.3125 192.953125 223.074219 193.527344 C 221.683594 196.882812 217.585938 198.367188 214.304688 198.890625 C 213.0625 199.089844 211.804688 199.222656 210.566406 199.441406 C 206.292969 200.1875 201.847656 200.457031 197.519531 200.640625 C 194.660156 200.761719 191.789062 200.816406 188.929688 200.816406 L 188.386719 200.816406 C 183.355469 200.816406 178.269531 200.710938 173.257812 200.199219 C 169.453125 199.816406 165.773438 199.226562 162.023438 198.53125 C 160.164062 198.183594 158.421875 197.390625 156.957031 196.191406 C 155.503906 195.007812 154.117188 193.613281 154.117188 191.644531 C 154.117188 191.414062 154.121094 191.175781 154.125 190.945312 C 154.167969 189.171875 154.359375 187.425781 154.683594 185.730469 C 154.683594 185.730469 154.226562 185.265625 154.222656 185.265625 L 149.515625 181.765625 L 153.546875 171.625 C 153.546875 171.625 160.507812 170.15625 163.5625 168.613281 C 166.917969 166.917969 170.105469 164.851562 173.394531 163.027344 C 175.136719 162.0625 176.878906 161.058594 178.5 159.886719 C 179.941406 158.839844 181.09375 157.441406 182.546875 156.410156 C 186.246094 153.78125 191.113281 153.527344 194.757812 156.347656 C 195.914062 157.242188 196.863281 158.382812 198.007812 159.289062 C 199.839844 160.738281 201.882812 161.898438 203.921875 163.027344 C 207.207031 164.851562 210.398438 166.917969 213.753906 168.613281 C 216.804688 170.15625 223.769531 171.625 223.769531 171.625 L 227.382812 183.839844 Z M 222.644531 185.714844 " fill-opacity="1" fill-rule="nonzero"/></g><path fill="#f8b858" d="M 223.191406 191.214844 C 210.332031 194.472656 198.5625 195.609375 188.378906 195.609375 C 172.367188 195.609375 160.292969 192.789062 154.125 190.945312 C 154.167969 189.171875 154.355469 187.425781 154.683594 185.730469 L 154.226562 185.265625 C 162.585938 187.960938 188.644531 194.535156 222.644531 185.714844 L 222.628906 185.730469 C 222.96875 187.511719 223.171875 189.34375 223.191406 191.214844 Z M 223.191406 191.214844 " fill-opacity="1" fill-rule="nonzero"/><path fill="#f8b858" d="M 198.199219 165.535156 L 198.199219 175.84375 C 197.921875 182.191406 188.660156 184.308594 188.660156 184.308594 C 188.660156 184.308594 185.152344 183.503906 182.390625 181.410156 C 182.289062 181.339844 182.195312 181.261719 182.097656 181.183594 C 180.503906 179.894531 179.21875 178.148438 179.121094 175.84375 L 179.121094 165.535156 C 179.121094 165.535156 182.375 166.070312 184.601562 165.285156 C 187.589844 164.230469 188.660156 162.238281 188.660156 162.238281 C 188.660156 162.238281 189.730469 164.230469 192.71875 165.285156 C 193.144531 165.433594 193.605469 165.535156 194.078125 165.609375 C 196.070312 165.886719 198.199219 165.535156 198.199219 165.535156 Z M 198.199219 165.535156 " fill-opacity="1" fill-rule="nonzero"/><path fill="#fbca6f" d="M 198.199219 165.535156 L 198.199219 175.84375 C 197.921875 182.191406 188.660156 184.308594 188.660156 184.308594 L 188.660156 162.238281 C 188.660156 162.238281 189.730469 164.230469 192.71875 165.285156 C 193.144531 165.433594 193.605469 165.535156 194.078125 165.609375 C 196.070312 165.886719 198.199219 165.535156 198.199219 165.535156 Z M 198.199219 165.535156 " fill-opacity="1" fill-rule="nonzero"/><g clip-path="url(#id8)"><path fill="#f8b858" d="M 134.613281 133.964844 C 124.871094 137.785156 117.957031 141.054688 109.046875 147.09375 C 109.933594 141.976562 108.605469 138.484375 110.074219 133.332031 C 106.328125 131.171875 105.574219 127.214844 101.59375 125.308594 C 109.894531 120.058594 115.433594 117.539062 124.328125 113.90625 C 127.851562 120.550781 131.28125 127.238281 134.613281 133.96875 Z M 134.613281 133.964844 " fill-opacity="1" fill-rule="nonzero"/><path fill="#231f20" d="M 108.710938 147.609375 L 108.808594 147.050781 C 109.199219 144.808594 109.15625 142.859375 109.117188 140.972656 C 109.066406 138.554688 109.019531 136.265625 109.792969 133.445312 C 108.058594 132.398438 106.960938 130.96875 105.894531 129.582031 C 104.675781 127.996094 103.523438 126.5 101.488281 125.527344 L 101.097656 125.339844 L 101.464844 125.105469 C 109.570312 119.980469 115.042969 117.441406 124.238281 113.683594 L 124.4375 113.601562 L 124.539062 113.792969 C 128.046875 120.402344 131.507812 127.152344 134.824219 133.859375 L 134.941406 134.09375 L 134.699219 134.191406 C 125.1875 137.917969 118.304688 141.109375 109.179688 147.292969 Z M 102.078125 125.285156 C 103.984375 126.3125 105.144531 127.824219 106.273438 129.289062 C 107.34375 130.679688 108.449219 132.117188 110.195312 133.121094 L 110.355469 133.214844 L 110.304688 133.398438 C 109.496094 136.234375 109.546875 138.53125 109.597656 140.960938 C 109.632812 142.714844 109.671875 144.527344 109.371094 146.585938 C 118.226562 140.632812 125.023438 137.476562 134.28125 133.835938 C 131.03125 127.277344 127.648438 120.679688 124.21875 114.210938 C 115.304688 117.859375 109.902344 120.367188 102.078125 125.289062 Z M 102.078125 125.285156 " fill-opacity="1" fill-rule="nonzero"/></g><path fill="#f8b858" d="M 128.925781 131.113281 C 130.855469 132.027344 132.753906 132.980469 134.613281 133.964844 " fill-opacity="1" fill-rule="nonzero"/><path fill="#231f20" d="M 134.609375 134.207031 C 134.574219 134.207031 134.535156 134.199219 134.5 134.179688 C 132.644531 133.195312 130.734375 132.234375 128.824219 131.332031 C 128.703125 131.273438 128.652344 131.132812 128.707031 131.011719 C 128.765625 130.890625 128.90625 130.839844 129.027344 130.894531 C 130.945312 131.804688 132.863281 132.765625 134.722656 133.753906 C 134.839844 133.816406 134.882812 133.960938 134.824219 134.078125 C 134.78125 134.160156 134.695312 134.207031 134.609375 134.207031 Z M 134.609375 134.207031 " fill-opacity="1" fill-rule="nonzero"/><g clip-path="url(#id9)"><path fill="#f8b858" d="M 238.863281 133.898438 C 248.605469 137.71875 255.488281 140.964844 264.40625 147.007812 C 263.515625 141.890625 264.878906 138.421875 263.410156 133.265625 C 267.292969 131.1875 268.945312 127.769531 273.078125 125.96875 C 264.640625 120.597656 258.199219 117.535156 249.148438 113.839844 C 245.625 120.480469 242.195312 127.167969 238.863281 133.898438 Z M 238.863281 133.898438 " fill-opacity="1" fill-rule="nonzero"/><path fill="#231f20" d="M 264.734375 147.523438 L 264.269531 147.207031 C 255.167969 141.039062 248.285156 137.851562 238.773438 134.121094 L 238.53125 134.027344 L 238.648438 133.789062 C 241.964844 127.085938 245.425781 120.335938 248.933594 113.726562 L 249.035156 113.535156 L 249.234375 113.613281 C 258.070312 117.222656 264.507812 120.230469 273.203125 125.765625 L 273.585938 126.007812 L 273.171875 126.1875 C 271 127.132812 269.550781 128.511719 268.019531 129.964844 C 266.75 131.171875 265.441406 132.417969 263.691406 133.386719 C 264.464844 136.203125 264.40625 138.476562 264.34375 140.882812 C 264.296875 142.765625 264.246094 144.71875 264.636719 146.964844 Z M 239.191406 133.769531 C 248.453125 137.40625 255.242188 140.558594 264.078125 146.496094 C 263.773438 144.433594 263.820312 142.625 263.867188 140.871094 C 263.925781 138.449219 263.984375 136.164062 263.175781 133.332031 L 263.125 133.144531 L 263.296875 133.054688 C 265.074219 132.101562 266.402344 130.839844 267.691406 129.617188 C 269.09375 128.28125 270.542969 126.90625 272.574219 125.933594 C 264.160156 120.609375 257.835938 117.652344 249.253906 114.144531 C 245.824219 120.609375 242.441406 127.210938 239.191406 133.769531 Z M 239.191406 133.769531 " fill-opacity="1" fill-rule="nonzero"/></g><path fill="#f8b858" d="M 244.765625 131.144531 C 242.792969 132.003906 240.859375 132.90625 238.960938 133.84375 " fill-opacity="1" fill-rule="nonzero"/><path fill="#231f20" d="M 238.957031 134.085938 C 238.867188 134.085938 238.785156 134.035156 238.742188 133.949219 C 238.683594 133.832031 238.734375 133.6875 238.851562 133.628906 C 240.753906 132.6875 242.710938 131.777344 244.667969 130.921875 C 244.789062 130.871094 244.929688 130.925781 244.980469 131.046875 C 245.035156 131.171875 244.980469 131.3125 244.859375 131.363281 C 242.90625 132.214844 240.957031 133.121094 239.0625 134.058594 C 239.027344 134.078125 238.992188 134.085938 238.957031 134.085938 Z M 238.957031 134.085938 " fill-opacity="1" fill-rule="nonzero"/><path fill="#f8b858" d="M 244.792969 131.011719 C 207.789062 115.191406 165.867188 115.164062 128.84375 130.929688 C 125.941406 124.035156 123.039062 117.140625 120.136719 110.246094 C 162.730469 92.105469 210.957031 92.140625 253.53125 110.339844 C 250.617188 117.230469 247.707031 124.121094 244.792969 131.011719 Z M 244.792969 131.011719 " fill-opacity="1" fill-rule="nonzero"/><path fill="#231f20" d="M 244.925781 131.328125 L 244.703125 131.234375 C 226.285156 123.359375 206.777344 119.367188 186.722656 119.367188 C 166.746094 119.367188 147.300781 123.332031 128.941406 131.152344 L 128.71875 131.246094 L 119.824219 110.117188 L 120.046875 110.023438 C 130.585938 105.535156 141.625 102.101562 152.859375 99.824219 C 163.980469 97.570312 175.375 96.425781 186.726562 96.425781 C 198.117188 96.425781 209.554688 97.578125 220.707031 99.847656 C 231.976562 102.144531 243.054688 105.597656 253.628906 110.117188 L 253.847656 110.210938 Z M 186.726562 118.886719 C 196.628906 118.886719 206.570312 119.886719 216.269531 121.859375 C 225.992188 123.839844 235.546875 126.8125 244.671875 130.695312 L 253.21875 110.46875 C 232.089844 101.46875 209.71875 96.90625 186.722656 96.90625 C 163.8125 96.90625 141.519531 101.4375 120.453125 110.371094 L 128.972656 130.613281 C 138.074219 126.757812 147.59375 123.804688 157.28125 121.839844 C 166.945312 119.878906 176.851562 118.886719 186.722656 118.886719 Z M 186.726562 118.886719 " fill-opacity="1" fill-rule="nonzero"/><g fill="#00262b" fill-opacity="1"><g transform="translate(143.625965, 121.779231)"><g><path d="M -2.171875 -16.546875 L 3.515625 -17.921875 C 5.898438 -18.492188 7.65625 -18.664062 8.78125 -18.4375 C 9.914062 -18.207031 10.734375 -17.609375 11.234375 -16.640625 C 11.734375 -15.679688 12.269531 -14.007812 12.84375 -11.625 C 13.40625 -9.257812 13.6875 -7.53125 13.6875 -6.4375 C 13.6875 -5.34375 13.234375 -4.4375 12.328125 -3.71875 C 11.429688 -3 9.789062 -2.351562 7.40625 -1.78125 L 1.71875 -0.40625 Z M 6.53125 -5.078125 C 7.726562 -5.367188 8.507812 -5.632812 8.875 -5.875 C 9.238281 -6.113281 9.40625 -6.53125 9.375 -7.125 C 9.34375 -7.726562 9.117188 -8.894531 8.703125 -10.625 C 8.285156 -12.351562 7.945312 -13.492188 7.6875 -14.046875 C 7.4375 -14.597656 7.09375 -14.894531 6.65625 -14.9375 C 6.21875 -14.988281 5.410156 -14.875 4.234375 -14.59375 L 2.671875 -14.21875 L 4.96875 -4.703125 Z M 6.53125 -5.078125 "/></g></g></g><g fill="#00262b" fill-opacity="1"><g transform="translate(158.183436, 118.210848)"><g><path d="M -0.421875 -16.703125 L 7.40625 -17.734375 C 8.863281 -17.929688 9.992188 -17.863281 10.796875 -17.53125 C 11.597656 -17.207031 12.175781 -16.664062 12.53125 -15.90625 C 12.882812 -15.15625 13.148438 -14.125 13.328125 -12.8125 C 13.492188 -11.582031 13.507812 -10.5625 13.375 -9.75 C 13.238281 -8.9375 12.820312 -8.25 12.125 -7.6875 C 11.4375 -7.125 10.351562 -6.742188 8.875 -6.546875 L 5.21875 -6.0625 L 5.921875 -0.78125 L 1.75 -0.234375 Z M 6.71875 -9.640625 C 7.5625 -9.753906 8.15625 -9.890625 8.5 -10.046875 C 8.851562 -10.203125 9.066406 -10.429688 9.140625 -10.734375 C 9.210938 -11.046875 9.203125 -11.550781 9.109375 -12.25 C 9.015625 -12.945312 8.894531 -13.441406 8.75 -13.734375 C 8.601562 -14.023438 8.34375 -14.195312 7.96875 -14.25 C 7.59375 -14.300781 6.976562 -14.269531 6.125 -14.15625 L 4.1875 -13.90625 L 4.78125 -9.390625 Z M 6.71875 -9.640625 "/></g></g></g><g fill="#00262b" fill-opacity="1"><g transform="translate(172.178368, 116.238685)"><g><path d="M 8.546875 -0.03125 C 6.210938 0.03125 4.546875 -0.164062 3.546875 -0.625 C 2.546875 -1.09375 1.90625 -1.863281 1.625 -2.9375 C 1.351562 -4.007812 1.1875 -5.804688 1.125 -8.328125 C 1.0625 -10.859375 1.140625 -12.664062 1.359375 -13.75 C 1.585938 -14.832031 2.1875 -15.628906 3.15625 -16.140625 C 4.132812 -16.660156 5.789062 -16.953125 8.125 -17.015625 C 10.457031 -17.066406 12.125 -16.859375 13.125 -16.390625 C 14.132812 -15.929688 14.769531 -15.164062 15.03125 -14.09375 C 15.300781 -13.019531 15.46875 -11.21875 15.53125 -8.6875 C 15.59375 -6.164062 15.515625 -4.363281 15.296875 -3.28125 C 15.085938 -2.195312 14.492188 -1.394531 13.515625 -0.875 C 12.535156 -0.363281 10.878906 -0.0820312 8.546875 -0.03125 Z M 8.46875 -3.421875 C 9.507812 -3.441406 10.203125 -3.539062 10.546875 -3.71875 C 10.898438 -3.90625 11.117188 -4.300781 11.203125 -4.90625 C 11.285156 -5.519531 11.304688 -6.742188 11.265625 -8.578125 C 11.210938 -10.421875 11.128906 -11.644531 11.015625 -12.25 C 10.898438 -12.863281 10.664062 -13.25 10.3125 -13.40625 C 9.957031 -13.5625 9.257812 -13.628906 8.21875 -13.609375 C 7.175781 -13.578125 6.46875 -13.472656 6.09375 -13.296875 C 5.71875 -13.117188 5.488281 -12.71875 5.40625 -12.09375 C 5.332031 -11.46875 5.320312 -10.25 5.375 -8.4375 C 5.414062 -6.632812 5.488281 -5.421875 5.59375 -4.796875 C 5.707031 -4.171875 5.953125 -3.773438 6.328125 -3.609375 C 6.710938 -3.453125 7.425781 -3.390625 8.46875 -3.421875 Z M 8.46875 -3.421875 "/></g></g></g><g fill="#00262b" fill-opacity="1"><g transform="translate(187.742625, 115.874399)"><g><path d="M 1.765625 0.125 L 2.96875 -16.4375 L 7.15625 -16.125 L 6.21875 -3.125 L 12.78125 -2.640625 L 12.515625 0.921875 Z M 1.765625 0.125 "/></g></g></g><g fill="#00262b" fill-opacity="1"><g transform="translate(199.566631, 116.787605)"><g><path d="M 1.703125 0.234375 L 4 -16.21875 L 8.15625 -15.640625 L 5.859375 0.8125 Z M 1.703125 0.234375 "/></g></g></g><g fill="#00262b" fill-opacity="1"><g transform="translate(205.892118, 117.518795)"><g><path d="M 12.59375 2.40625 C 12.039062 2.414062 11.347656 2.375 10.515625 2.28125 C 9.691406 2.1875 8.925781 2.066406 8.21875 1.921875 C 6.164062 1.484375 4.703125 0.910156 3.828125 0.203125 C 2.960938 -0.503906 2.488281 -1.457031 2.40625 -2.65625 C 2.320312 -3.851562 2.519531 -5.585938 3 -7.859375 C 3.46875 -10.097656 3.984375 -11.75 4.546875 -12.8125 C 5.109375 -13.875 5.929688 -14.5625 7.015625 -14.875 C 8.109375 -15.1875 9.671875 -15.128906 11.703125 -14.703125 C 12.410156 -14.554688 13.144531 -14.351562 13.90625 -14.09375 C 14.675781 -13.84375 15.3125 -13.609375 15.8125 -13.390625 L 15.15625 -10.265625 C 13.582031 -10.753906 12.535156 -11.054688 12.015625 -11.171875 C 10.722656 -11.441406 9.8125 -11.53125 9.28125 -11.4375 C 8.75 -11.34375 8.347656 -11 8.078125 -10.40625 C 7.816406 -9.8125 7.507812 -8.671875 7.15625 -6.984375 C 6.800781 -5.296875 6.625 -4.125 6.625 -3.46875 C 6.632812 -2.820312 6.863281 -2.347656 7.3125 -2.046875 C 7.757812 -1.753906 8.628906 -1.472656 9.921875 -1.203125 C 11.085938 -0.953125 12.195312 -0.800781 13.25 -0.75 Z M 12.59375 2.40625 "/></g></g></g><g fill="#00262b" fill-opacity="1"><g transform="translate(218.048029, 119.977939)"><g><path d="M 1.6875 0.515625 L 6.59375 -15.359375 L 17.84375 -11.875 L 16.828125 -8.609375 L 9.59375 -10.84375 L 8.6875 -7.875 L 14.828125 -5.984375 L 13.8125 -2.734375 L 7.671875 -4.625 L 6.703125 -1.484375 L 13.9375 0.75 L 12.9375 4 Z M 1.6875 0.515625 "/></g></g></g><g fill="#f8b858" fill-opacity="1"><g transform="translate(193.416665, 226.718364)"><g/></g></g><g fill="#f8b858" fill-opacity="1"><g transform="translate(193.416665, 238.718363)"><g/></g></g><g fill="#f8b858" fill-opacity="1"><g transform="translate(151.29948, 250.718362)"><g><path d="M 7.234375 -0.125 C 6.921875 -0.0625 6.53125 -0.0078125 6.0625 0.03125 C 5.59375 0.0820312 5.15625 0.109375 4.75 0.109375 C 3.570312 0.109375 2.703125 -0.0351562 2.140625 -0.328125 C 1.578125 -0.617188 1.203125 -1.085938 1.015625 -1.734375 C 0.835938 -2.390625 0.75 -3.375 0.75 -4.6875 C 0.75 -5.96875 0.84375 -6.9375 1.03125 -7.59375 C 1.21875 -8.25 1.59375 -8.722656 2.15625 -9.015625 C 2.71875 -9.316406 3.582031 -9.46875 4.75 -9.46875 C 5.15625 -9.46875 5.582031 -9.441406 6.03125 -9.390625 C 6.488281 -9.347656 6.867188 -9.289062 7.171875 -9.21875 L 7.171875 -7.421875 C 6.242188 -7.503906 5.628906 -7.546875 5.328125 -7.546875 C 4.585938 -7.546875 4.078125 -7.488281 3.796875 -7.375 C 3.515625 -7.269531 3.332031 -7.035156 3.25 -6.671875 C 3.175781 -6.316406 3.140625 -5.65625 3.140625 -4.6875 C 3.140625 -3.707031 3.175781 -3.039062 3.25 -2.6875 C 3.332031 -2.332031 3.515625 -2.097656 3.796875 -1.984375 C 4.078125 -1.867188 4.585938 -1.8125 5.328125 -1.8125 C 6.003906 -1.8125 6.640625 -1.859375 7.234375 -1.953125 Z M 7.234375 -0.125 "/></g></g></g><g fill="#f8b858" fill-opacity="1"><g transform="translate(158.69395, 250.718362)"><g><path d="M 4.8125 0.109375 C 3.5 0.109375 2.5625 -0.0234375 2 -0.296875 C 1.445312 -0.578125 1.097656 -1.019531 0.953125 -1.625 C 0.816406 -2.238281 0.75 -3.257812 0.75 -4.6875 C 0.75 -6.101562 0.816406 -7.113281 0.953125 -7.71875 C 1.097656 -8.332031 1.445312 -8.773438 2 -9.046875 C 2.5625 -9.328125 3.5 -9.46875 4.8125 -9.46875 C 6.132812 -9.46875 7.070312 -9.328125 7.625 -9.046875 C 8.1875 -8.773438 8.535156 -8.332031 8.671875 -7.71875 C 8.804688 -7.113281 8.875 -6.101562 8.875 -4.6875 C 8.875 -3.257812 8.804688 -2.238281 8.671875 -1.625 C 8.535156 -1.019531 8.1875 -0.578125 7.625 -0.296875 C 7.070312 -0.0234375 6.132812 0.109375 4.8125 0.109375 Z M 4.8125 -1.8125 C 5.40625 -1.8125 5.800781 -1.859375 6 -1.953125 C 6.195312 -2.046875 6.320312 -2.265625 6.375 -2.609375 C 6.4375 -2.953125 6.46875 -3.644531 6.46875 -4.6875 C 6.46875 -5.71875 6.4375 -6.40625 6.375 -6.75 C 6.320312 -7.09375 6.195312 -7.3125 6 -7.40625 C 5.800781 -7.5 5.40625 -7.546875 4.8125 -7.546875 C 4.226562 -7.546875 3.832031 -7.5 3.625 -7.40625 C 3.414062 -7.3125 3.28125 -7.085938 3.21875 -6.734375 C 3.164062 -6.378906 3.140625 -5.695312 3.140625 -4.6875 C 3.140625 -3.664062 3.164062 -2.976562 3.21875 -2.625 C 3.28125 -2.269531 3.414062 -2.046875 3.625 -1.953125 C 3.832031 -1.859375 4.226562 -1.8125 4.8125 -1.8125 Z M 4.8125 -1.8125 "/></g></g></g><g fill="#f8b858" fill-opacity="1"><g transform="translate(167.896402, 250.718362)"><g><path d="M 8.96875 0 L 8.96875 -5.953125 L 8.875 -5.953125 L 6.875 0 L 5.265625 0 L 3.265625 -5.953125 L 3.171875 -5.953125 L 3.171875 0 L 0.96875 0 L 0.96875 -9.359375 L 4.21875 -9.359375 L 6.0625 -3.953125 L 6.171875 -3.953125 L 8 -9.359375 L 11.234375 -9.359375 L 11.234375 0 Z M 8.96875 0 "/></g></g></g><g fill="#f8b858" fill-opacity="1"><g transform="translate(179.681673, 250.718362)"><g><path d="M 1 -9.359375 L 5.4375 -9.359375 C 6.28125 -9.359375 6.910156 -9.234375 7.328125 -8.984375 C 7.753906 -8.742188 8.035156 -8.398438 8.171875 -7.953125 C 8.316406 -7.515625 8.390625 -6.921875 8.390625 -6.171875 C 8.390625 -5.472656 8.320312 -4.898438 8.1875 -4.453125 C 8.0625 -4.015625 7.78125 -3.660156 7.34375 -3.390625 C 6.914062 -3.128906 6.28125 -3 5.4375 -3 L 3.359375 -3 L 3.359375 0 L 1 0 Z M 4.46875 -4.90625 C 4.945312 -4.90625 5.289062 -4.929688 5.5 -4.984375 C 5.707031 -5.046875 5.84375 -5.160156 5.90625 -5.328125 C 5.96875 -5.492188 6 -5.773438 6 -6.171875 C 6 -6.578125 5.96875 -6.863281 5.90625 -7.03125 C 5.84375 -7.195312 5.707031 -7.304688 5.5 -7.359375 C 5.300781 -7.421875 4.957031 -7.453125 4.46875 -7.453125 L 3.359375 -7.453125 L 3.359375 -4.90625 Z M 4.46875 -4.90625 "/></g></g></g><g fill="#f8b858" fill-opacity="1"><g transform="translate(188.109267, 250.718362)"><g><path d="M 6.90625 0 L 6.34375 -1.765625 L 3 -1.765625 L 2.484375 0 L 0.109375 0 L 3.109375 -9.359375 L 6.3125 -9.359375 L 9.3125 0 Z M 4.6875 -7.265625 L 4.625 -7.265625 L 3.546875 -3.6875 L 5.78125 -3.6875 Z M 4.6875 -7.265625 "/></g></g></g><g fill="#f8b858" fill-opacity="1"><g transform="translate(197.107808, 250.718362)"><g><path d="M 4.421875 0.109375 C 3.097656 0.109375 1.921875 0.03125 0.890625 -0.125 L 0.890625 -1.96875 C 2.003906 -1.863281 2.941406 -1.8125 3.703125 -1.8125 C 4.148438 -1.8125 4.488281 -1.828125 4.71875 -1.859375 C 4.957031 -1.898438 5.125 -1.960938 5.21875 -2.046875 C 5.3125 -2.117188 5.367188 -2.207031 5.390625 -2.3125 C 5.421875 -2.414062 5.4375 -2.5625 5.4375 -2.75 C 5.4375 -2.976562 5.414062 -3.140625 5.375 -3.234375 C 5.34375 -3.335938 5.269531 -3.410156 5.15625 -3.453125 C 5.050781 -3.492188 4.863281 -3.53125 4.59375 -3.5625 L 2.859375 -3.78125 C 2.242188 -3.851562 1.773438 -4.007812 1.453125 -4.25 C 1.128906 -4.488281 0.910156 -4.796875 0.796875 -5.171875 C 0.679688 -5.554688 0.625 -6.035156 0.625 -6.609375 C 0.625 -7.421875 0.773438 -8.035156 1.078125 -8.453125 C 1.378906 -8.867188 1.78125 -9.140625 2.28125 -9.265625 C 2.78125 -9.398438 3.421875 -9.46875 4.203125 -9.46875 C 4.773438 -9.46875 5.296875 -9.445312 5.765625 -9.40625 C 6.242188 -9.363281 6.765625 -9.289062 7.328125 -9.1875 L 7.328125 -7.375 C 6.253906 -7.488281 5.375 -7.546875 4.6875 -7.546875 C 3.957031 -7.546875 3.484375 -7.492188 3.265625 -7.390625 C 3.148438 -7.335938 3.078125 -7.257812 3.046875 -7.15625 C 3.015625 -7.0625 3 -6.921875 3 -6.734375 C 3 -6.503906 3.015625 -6.34375 3.046875 -6.25 C 3.078125 -6.15625 3.144531 -6.085938 3.25 -6.046875 C 3.351562 -6.003906 3.535156 -5.96875 3.796875 -5.9375 L 5.78125 -5.6875 C 6.1875 -5.644531 6.515625 -5.5625 6.765625 -5.4375 C 7.023438 -5.320312 7.242188 -5.125 7.421875 -4.84375 C 7.679688 -4.457031 7.8125 -3.835938 7.8125 -2.984375 C 7.8125 -2.085938 7.671875 -1.414062 7.390625 -0.96875 C 7.109375 -0.519531 6.726562 -0.226562 6.25 -0.09375 C 5.78125 0.0390625 5.171875 0.109375 4.421875 0.109375 Z M 4.421875 0.109375 "/></g></g></g><g fill="#f8b858" fill-opacity="1"><g transform="translate(205.127592, 250.718362)"><g><path d="M 4.421875 0.109375 C 3.097656 0.109375 1.921875 0.03125 0.890625 -0.125 L 0.890625 -1.96875 C 2.003906 -1.863281 2.941406 -1.8125 3.703125 -1.8125 C 4.148438 -1.8125 4.488281 -1.828125 4.71875 -1.859375 C 4.957031 -1.898438 5.125 -1.960938 5.21875 -2.046875 C 5.3125 -2.117188 5.367188 -2.207031 5.390625 -2.3125 C 5.421875 -2.414062 5.4375 -2.5625 5.4375 -2.75 C 5.4375 -2.976562 5.414062 -3.140625 5.375 -3.234375 C 5.34375 -3.335938 5.269531 -3.410156 5.15625 -3.453125 C 5.050781 -3.492188 4.863281 -3.53125 4.59375 -3.5625 L 2.859375 -3.78125 C 2.242188 -3.851562 1.773438 -4.007812 1.453125 -4.25 C 1.128906 -4.488281 0.910156 -4.796875 0.796875 -5.171875 C 0.679688 -5.554688 0.625 -6.035156 0.625 -6.609375 C 0.625 -7.421875 0.773438 -8.035156 1.078125 -8.453125 C 1.378906 -8.867188 1.78125 -9.140625 2.28125 -9.265625 C 2.78125 -9.398438 3.421875 -9.46875 4.203125 -9.46875 C 4.773438 -9.46875 5.296875 -9.445312 5.765625 -9.40625 C 6.242188 -9.363281 6.765625 -9.289062 7.328125 -9.1875 L 7.328125 -7.375 C 6.253906 -7.488281 5.375 -7.546875 4.6875 -7.546875 C 3.957031 -7.546875 3.484375 -7.492188 3.265625 -7.390625 C 3.148438 -7.335938 3.078125 -7.257812 3.046875 -7.15625 C 3.015625 -7.0625 3 -6.921875 3 -6.734375 C 3 -6.503906 3.015625 -6.34375 3.046875 -6.25 C 3.078125 -6.15625 3.144531 -6.085938 3.25 -6.046875 C 3.351562 -6.003906 3.535156 -5.96875 3.796875 -5.9375 L 5.78125 -5.6875 C 6.1875 -5.644531 6.515625 -5.5625 6.765625 -5.4375 C 7.023438 -5.320312 7.242188 -5.125 7.421875 -4.84375 C 7.679688 -4.457031 7.8125 -3.835938 7.8125 -2.984375 C 7.8125 -2.085938 7.671875 -1.414062 7.390625 -0.96875 C 7.109375 -0.519531 6.726562 -0.226562 6.25 -0.09375 C 5.78125 0.0390625 5.171875 0.109375 4.421875 0.109375 Z M 4.421875 0.109375 "/></g></g></g><g fill="#f8b858" fill-opacity="1"><g transform="translate(213.147377, 250.718362)"><g><path d="M 0.96875 0 L 0.96875 -9.359375 L 3.328125 -9.359375 L 3.328125 0 Z M 0.96875 0 "/></g></g></g><g fill="#f8b858" fill-opacity="1"><g transform="translate(217.034654, 250.718362)"><g><path d="M 4.8125 0.109375 C 3.5 0.109375 2.5625 -0.0234375 2 -0.296875 C 1.445312 -0.578125 1.097656 -1.019531 0.953125 -1.625 C 0.816406 -2.238281 0.75 -3.257812 0.75 -4.6875 C 0.75 -6.101562 0.816406 -7.113281 0.953125 -7.71875 C 1.097656 -8.332031 1.445312 -8.773438 2 -9.046875 C 2.5625 -9.328125 3.5 -9.46875 4.8125 -9.46875 C 6.132812 -9.46875 7.070312 -9.328125 7.625 -9.046875 C 8.1875 -8.773438 8.535156 -8.332031 8.671875 -7.71875 C 8.804688 -7.113281 8.875 -6.101562 8.875 -4.6875 C 8.875 -3.257812 8.804688 -2.238281 8.671875 -1.625 C 8.535156 -1.019531 8.1875 -0.578125 7.625 -0.296875 C 7.070312 -0.0234375 6.132812 0.109375 4.8125 0.109375 Z M 4.8125 -1.8125 C 5.40625 -1.8125 5.800781 -1.859375 6 -1.953125 C 6.195312 -2.046875 6.320312 -2.265625 6.375 -2.609375 C 6.4375 -2.953125 6.46875 -3.644531 6.46875 -4.6875 C 6.46875 -5.71875 6.4375 -6.40625 6.375 -6.75 C 6.320312 -7.09375 6.195312 -7.3125 6 -7.40625 C 5.800781 -7.5 5.40625 -7.546875 4.8125 -7.546875 C 4.226562 -7.546875 3.832031 -7.5 3.625 -7.40625 C 3.414062 -7.3125 3.28125 -7.085938 3.21875 -6.734375 C 3.164062 -6.378906 3.140625 -5.695312 3.140625 -4.6875 C 3.140625 -3.664062 3.164062 -2.976562 3.21875 -2.625 C 3.28125 -2.269531 3.414062 -2.046875 3.625 -1.953125 C 3.832031 -1.859375 4.226562 -1.8125 4.8125 -1.8125 Z M 4.8125 -1.8125 "/></g></g></g><g fill="#f8b858" fill-opacity="1"><g transform="translate(226.237105, 250.718362)"><g><path d="M 6.53125 0 L 3.296875 -5.34375 L 3.21875 -5.34375 L 3.21875 0 L 0.96875 0 L 0.96875 -9.359375 L 3.40625 -9.359375 L 6.40625 -4.5 L 6.484375 -4.5 L 6.484375 -9.359375 L 8.75 -9.359375 L 8.75 0 Z M 6.53125 0 "/></g></g></g><g fill="#f8b858" fill-opacity="1"><g transform="translate(193.416665, 262.718361)"><g/></g></g><g fill="#f8b858" fill-opacity="1"><g transform="translate(269.213762, 181.918639)"><g/></g></g><g fill="#f8b858" fill-opacity="1"><g transform="translate(269.213762, 193.918638)"><g/></g></g><g fill="#f8b858" fill-opacity="1"><g transform="translate(248.764545, 205.918638)"><g><path d="M 2.796875 0 L 2.796875 -7.34375 L 0.21875 -7.34375 L 0.21875 -9.359375 L 7.765625 -9.359375 L 7.765625 -7.34375 L 5.171875 -7.34375 L 5.171875 0 Z M 2.796875 0 "/></g></g></g><g fill="#f8b858" fill-opacity="1"><g transform="translate(256.322138, 205.918638)"><g><path d="M 6.234375 0 L 5.015625 -3.28125 L 3.359375 -3.28125 L 3.359375 0 L 1 0 L 1 -9.359375 L 5.484375 -9.359375 C 6.347656 -9.359375 7 -9.238281 7.4375 -9 C 7.875 -8.757812 8.160156 -8.425781 8.296875 -8 C 8.441406 -7.582031 8.515625 -7.019531 8.515625 -6.3125 C 8.515625 -5.65625 8.429688 -5.085938 8.265625 -4.609375 C 8.097656 -4.128906 7.765625 -3.78125 7.265625 -3.5625 L 8.703125 0 Z M 4.59375 -5.15625 C 5.082031 -5.15625 5.425781 -5.179688 5.625 -5.234375 C 5.832031 -5.296875 5.96875 -5.398438 6.03125 -5.546875 C 6.09375 -5.691406 6.125 -5.941406 6.125 -6.296875 C 6.125 -6.660156 6.09375 -6.914062 6.03125 -7.0625 C 5.976562 -7.21875 5.847656 -7.320312 5.640625 -7.375 C 5.441406 -7.425781 5.097656 -7.453125 4.609375 -7.453125 L 3.359375 -7.453125 L 3.359375 -5.15625 Z M 4.59375 -5.15625 "/></g></g></g><g fill="#f8b858" fill-opacity="1"><g transform="translate(265.14396, 205.918638)"><g><path d="M 8.421875 -9.359375 L 8.421875 -4.234375 C 8.421875 -2.984375 8.34375 -2.066406 8.1875 -1.484375 C 8.039062 -0.910156 7.707031 -0.5 7.1875 -0.25 C 6.675781 -0.0078125 5.835938 0.109375 4.671875 0.109375 C 3.492188 0.109375 2.644531 -0.0078125 2.125 -0.25 C 1.613281 -0.5 1.28125 -0.910156 1.125 -1.484375 C 0.976562 -2.066406 0.90625 -2.984375 0.90625 -4.234375 L 0.90625 -9.359375 L 3.28125 -9.359375 L 3.28125 -3.734375 C 3.28125 -3.085938 3.300781 -2.640625 3.34375 -2.390625 C 3.394531 -2.148438 3.507812 -1.988281 3.6875 -1.90625 C 3.863281 -1.820312 4.191406 -1.78125 4.671875 -1.78125 C 5.140625 -1.78125 5.460938 -1.820312 5.640625 -1.90625 C 5.828125 -1.988281 5.941406 -2.148438 5.984375 -2.390625 C 6.035156 -2.640625 6.0625 -3.085938 6.0625 -3.734375 L 6.0625 -9.359375 Z M 8.421875 -9.359375 "/></g></g></g><g fill="#f8b858" fill-opacity="1"><g transform="translate(274.074537, 205.918638)"><g><path d="M 4.421875 0.109375 C 3.097656 0.109375 1.921875 0.03125 0.890625 -0.125 L 0.890625 -1.96875 C 2.003906 -1.863281 2.941406 -1.8125 3.703125 -1.8125 C 4.148438 -1.8125 4.488281 -1.828125 4.71875 -1.859375 C 4.957031 -1.898438 5.125 -1.960938 5.21875 -2.046875 C 5.3125 -2.117188 5.367188 -2.207031 5.390625 -2.3125 C 5.421875 -2.414062 5.4375 -2.5625 5.4375 -2.75 C 5.4375 -2.976562 5.414062 -3.140625 5.375 -3.234375 C 5.34375 -3.335938 5.269531 -3.410156 5.15625 -3.453125 C 5.050781 -3.492188 4.863281 -3.53125 4.59375 -3.5625 L 2.859375 -3.78125 C 2.242188 -3.851562 1.773438 -4.007812 1.453125 -4.25 C 1.128906 -4.488281 0.910156 -4.796875 0.796875 -5.171875 C 0.679688 -5.554688 0.625 -6.035156 0.625 -6.609375 C 0.625 -7.421875 0.773438 -8.035156 1.078125 -8.453125 C 1.378906 -8.867188 1.78125 -9.140625 2.28125 -9.265625 C 2.78125 -9.398438 3.421875 -9.46875 4.203125 -9.46875 C 4.773438 -9.46875 5.296875 -9.445312 5.765625 -9.40625 C 6.242188 -9.363281 6.765625 -9.289062 7.328125 -9.1875 L 7.328125 -7.375 C 6.253906 -7.488281 5.375 -7.546875 4.6875 -7.546875 C 3.957031 -7.546875 3.484375 -7.492188 3.265625 -7.390625 C 3.148438 -7.335938 3.078125 -7.257812 3.046875 -7.15625 C 3.015625 -7.0625 3 -6.921875 3 -6.734375 C 3 -6.503906 3.015625 -6.34375 3.046875 -6.25 C 3.078125 -6.15625 3.144531 -6.085938 3.25 -6.046875 C 3.351562 -6.003906 3.535156 -5.96875 3.796875 -5.9375 L 5.78125 -5.6875 C 6.1875 -5.644531 6.515625 -5.5625 6.765625 -5.4375 C 7.023438 -5.320312 7.242188 -5.125 7.421875 -4.84375 C 7.679688 -4.457031 7.8125 -3.835938 7.8125 -2.984375 C 7.8125 -2.085938 7.671875 -1.414062 7.390625 -0.96875 C 7.109375 -0.519531 6.726562 -0.226562 6.25 -0.09375 C 5.78125 0.0390625 5.171875 0.109375 4.421875 0.109375 Z M 4.421875 0.109375 "/></g></g></g><g fill="#f8b858" fill-opacity="1"><g transform="translate(282.094322, 205.918638)"><g><path d="M 2.796875 0 L 2.796875 -7.34375 L 0.21875 -7.34375 L 0.21875 -9.359375 L 7.765625 -9.359375 L 7.765625 -7.34375 L 5.171875 -7.34375 L 5.171875 0 Z M 2.796875 0 "/></g></g></g><g fill="#f8b858" fill-opacity="1"><g transform="translate(269.213762, 217.918637)"><g/></g></g><g fill="#f8b858" fill-opacity="1"><g transform="translate(101.234977, 181.918639)"><g/></g></g><g fill="#f8b858" fill-opacity="1"><g transform="translate(101.234977, 193.918638)"><g/></g></g><g fill="#f8b858" fill-opacity="1"><g transform="translate(84.43029, 205.918638)"><g><path d="M 1 -9.359375 L 4.296875 -9.359375 C 5.679688 -9.359375 6.664062 -9.21875 7.25 -8.9375 C 7.84375 -8.664062 8.210938 -8.234375 8.359375 -7.640625 C 8.503906 -7.046875 8.578125 -6.0625 8.578125 -4.6875 C 8.578125 -3.300781 8.503906 -2.3125 8.359375 -1.71875 C 8.210938 -1.125 7.84375 -0.6875 7.25 -0.40625 C 6.664062 -0.132812 5.679688 0 4.296875 0 L 1 0 Z M 4.25 -1.921875 C 4.945312 -1.921875 5.410156 -1.960938 5.640625 -2.046875 C 5.867188 -2.128906 6.015625 -2.335938 6.078125 -2.671875 C 6.140625 -3.003906 6.171875 -3.675781 6.171875 -4.6875 C 6.171875 -5.675781 6.132812 -6.335938 6.0625 -6.671875 C 6 -7.015625 5.851562 -7.226562 5.625 -7.3125 C 5.394531 -7.394531 4.9375 -7.4375 4.25 -7.4375 L 3.34375 -7.4375 L 3.34375 -1.921875 Z M 4.25 -1.921875 "/></g></g></g><g fill="#f8b858" fill-opacity="1"><g transform="translate(93.333674, 205.918638)"><g><path d="M 8.421875 -9.359375 L 8.421875 -4.234375 C 8.421875 -2.984375 8.34375 -2.066406 8.1875 -1.484375 C 8.039062 -0.910156 7.707031 -0.5 7.1875 -0.25 C 6.675781 -0.0078125 5.835938 0.109375 4.671875 0.109375 C 3.492188 0.109375 2.644531 -0.0078125 2.125 -0.25 C 1.613281 -0.5 1.28125 -0.910156 1.125 -1.484375 C 0.976562 -2.066406 0.90625 -2.984375 0.90625 -4.234375 L 0.90625 -9.359375 L 3.28125 -9.359375 L 3.28125 -3.734375 C 3.28125 -3.085938 3.300781 -2.640625 3.34375 -2.390625 C 3.394531 -2.148438 3.507812 -1.988281 3.6875 -1.90625 C 3.863281 -1.820312 4.191406 -1.78125 4.671875 -1.78125 C 5.140625 -1.78125 5.460938 -1.820312 5.640625 -1.90625 C 5.828125 -1.988281 5.941406 -2.148438 5.984375 -2.390625 C 6.035156 -2.640625 6.0625 -3.085938 6.0625 -3.734375 L 6.0625 -9.359375 Z M 8.421875 -9.359375 "/></g></g></g><g fill="#f8b858" fill-opacity="1"><g transform="translate(102.26425, 205.918638)"><g><path d="M 2.796875 0 L 2.796875 -7.34375 L 0.21875 -7.34375 L 0.21875 -9.359375 L 7.765625 -9.359375 L 7.765625 -7.34375 L 5.171875 -7.34375 L 5.171875 0 Z M 2.796875 0 "/></g></g></g><g fill="#f8b858" fill-opacity="1"><g transform="translate(109.821844, 205.918638)"><g><path d="M 3.125 0 L 3.125 -3.1875 L 0.015625 -9.359375 L 2.46875 -9.359375 L 4.296875 -5.5 L 4.390625 -5.5 L 6.21875 -9.359375 L 8.609375 -9.359375 L 5.5 -3.1875 L 5.5 0 Z M 3.125 0 "/></g></g></g><g fill="#f8b858" fill-opacity="1"><g transform="translate(101.234977, 217.918637)"><g/></g></g></svg>